<svg width="32" height="32" viewBox="0 0 32 32" fill="none" xmlns="http://www.w3.org/2000/svg">
<rect width="32" height="32" rx="5.5" fill="#EA5E2A"/>
<g transform="translate(3.5, 7.2) scale(0.1515)">
<path d="M22.0113 3.9107C20.7983 2.0859 18.1018 2.13486 16.9559 4.00248L0.955163 30.0797C0.368472 31.0358 0.364264 32.2394 0.944253 33.1997L48.4447 111.842C49.5981 113.752 52.3581 113.779 53.5492 111.893L79.1032 71.4268C80.2931 69.5427 83.0492 69.5675 84.2048 71.4728L108.757 111.95C109.898 113.832 112.611 113.884 113.825 112.048L132.378 83.9677C133.033 82.9758 133.041 81.6904 132.397 80.6906L83.0435 3.98731C81.8517 2.13507 79.1368 2.15574 77.9734 4.02591L53.4196 43.4943C52.2664 45.348 49.5825 45.3884 48.3739 43.5703L22.0113 3.9107Z" fill="white"/>
<path d="M145.631 3.57663C144.438 1.84897 141.885 1.84897 140.693 3.57662L122.434 30.0273C121.759 31.0053 121.725 32.2897 122.347 33.3022L140.248 62.4345C141.408 64.3218 144.143 64.3445 145.334 62.4769L163.93 33.3151C164.578 32.2978 164.554 30.9908 163.869 29.9978L145.631 3.57663Z" fill="white"/>
</g>
</svg>
